<?xml version="1.0" encoding="iso-8859-1"?>
<!-- Generator: Adobe Illustrator 16.0.0, SVG Export Plug-In . SVG Version: 6.00 Build 0)  -->
<!DOCTYPE svg PUBLIC "-//W3C//DTD SVG 1.1//EN" "http://www.w3.org/Graphics/SVG/1.1/DTD/svg11.dtd">
<svg version="1.1" id="Capa_1" xmlns="http://www.w3.org/2000/svg" xmlns:xlink="http://www.w3.org/1999/xlink" x="0px" y="0px"
	 width="186.667px" height="186.668px" viewBox="0 0 186.667 186.668" style="enable-background:new 0 0 186.667 186.668;"
	 xml:space="preserve">
<g>
	<g>
		<path d="M149.048,80.421l-13.525-68.699C135.523,5.235,116.616,0,93.335,0C70.044,0,51.147,5.235,51.147,11.722L37.634,80.421
			c-0.329,0.92-0.547,1.852-0.547,2.839c0,6.484,7.566,11.726,16.87,11.726c3.266,0,6.297-0.674,8.882-1.8
			c4.564,6.5,16.453,11.169,30.497,11.169c13.018,0,24.079-4.04,29.276-9.798v23.659c-2.184,0.529-3.879,2.437-3.879,4.797
			c0,2.798,2.272,5.062,5.077,5.062c2.806,0,5.058-2.256,5.058-5.062c0-2.384-1.671-4.268-3.879-4.797V93.539
			c2.34,0.85,4.925,1.447,7.73,1.447c9.312,0,16.863-5.242,16.863-11.726C149.582,82.286,149.369,81.356,149.048,80.421z
			 M93.335,18.765c-23.387,0-35.648-5.162-36.592-6.871c0.944-2.038,13.205-7.197,36.592-7.197c23.389,0,35.64,5.16,36.59,6.853
			C128.975,13.603,116.724,18.765,93.335,18.765z"/>
		<path d="M119.393,176.87c0-1.403-10.459-2.562-23.712-2.674v-64.491h-4.692v64.491c-13.267,0.112-23.724,1.271-23.724,2.674
			l-3.981,2.54c-8.241,0.773-13.417,1.84-13.417,3.058c0,2.316,19.462,4.2,43.468,4.2c24.018,0,43.466-1.884,43.466-4.2
			c0-1.202-5.173-2.284-13.408-3.058L119.393,176.87z"/>
	</g>
</g>
<g>
</g>
<g>
</g>
<g>
</g>
<g>
</g>
<g>
</g>
<g>
</g>
<g>
</g>
<g>
</g>
<g>
</g>
<g>
</g>
<g>
</g>
<g>
</g>
<g>
</g>
<g>
</g>
<g>
</g>
</svg>
